<svg xmlns="http://www.w3.org/2000/svg" width="50.408" height="50.408" viewBox="0 0 50.408 50.408">
  <path id="Facebook-Icon-9iujnmd" d="M47.521,0A25.2,25.2,0,1,0,72.726,25.205,25.215,25.215,0,0,0,47.521,0m7.231,15.322a.5.5,0,0,1-.529.5H51.7a2.031,2.031,0,0,0-2.023,2.023V20.4h4.545a.55.55,0,0,1,.529.562v5.506a.522.522,0,0,1-.529.529H49.676v14.2h-6.6v-14.2H40.524a.55.55,0,0,1-.562-.529V20.959a.578.578,0,0,1,.562-.562h2.555V15.819a6.609,6.609,0,0,1,6.6-6.565h4.545a.522.522,0,0,1,.529.529Z" transform="translate(-22.318)"/>
</svg>
