<svg xmlns="http://www.w3.org/2000/svg" data-name="Layer 1" viewBox="0 0 100 100" id="linkedin"><path d="M55.35,44.17h.07v-.11Zm0,0h.07v-.11Zm0,0h.07v-.11Zm0,0h.07v-.11Zm0,0h.07v-.11Zm0,0h.07v-.11Zm0,0h.07v-.11Zm0,0h.07v-.11Zm0,0h.07v-.11Zm0,0h.07v-.11Zm0,0h.07v-.11Zm0,0h.07v-.11Zm0,0h.07v-.11Zm0,0h.07v-.11Zm0,0h.07v-.11Zm0,0h.07v-.11ZM50.8,3.77A45.67,45.67,0,1,0,96.47,49.44,45.72,45.72,0,0,0,50.8,3.77ZM39.38,70a.77.77,0,0,1-.77.76h-8.8a.76.76,0,0,1-.76-.76V40.43a.76.76,0,0,1,.76-.77h8.8a.77.77,0,0,1,.77.77ZM33.9,35.71a5.53,5.53,0,1,1,5.53-5.53A5.52,5.52,0,0,1,33.9,35.71ZM76.62,70a.77.77,0,0,1-.77.76h-8.8a.76.76,0,0,1-.76-.76V54.11c0-4.18-1.49-7-5.23-7a5.65,5.65,0,0,0-5.3,3.78,7.12,7.12,0,0,0-.34,2.52V70a.77.77,0,0,1-.77.77h-8.8a.76.76,0,0,1-.76-.77c0-4.22.11-24.71,0-29.53a.76.76,0,0,1,.76-.77h8.78a.76.76,0,0,1,.77.77v3.63a10.26,10.26,0,0,1,9.31-5.13c6.79,0,11.89,4.44,11.89,14Zm-21.2-25.8v-.11l-.07.11Zm-.07,0h.07v-.11Zm0,0h.07v-.11Zm0,0h.07v-.11Zm0,0h.07v-.11Zm0,0h.07v-.11Zm0,0h.07v-.11Zm0,0h.07v-.11Zm0,0h.07v-.11Zm0,0h.07v-.11Zm0,0h.07v-.11Zm0,0h.07v-.11Zm0,0h.07v-.11Zm0,0h.07v-.11Zm0,0h.07v-.11Z"></path></svg>